<svg preserveAspectRatio="none" viewBox="0 0 400 318" fill="none" xmlns="http://www.w3.org/2000/svg">
<rect width="400" height="318" fill="white"/>
<g filter="url(#filter0_i_57_20)">
<path d="M8.94014 306.961C12.9145 306.961 13.2223 308.773 17.3944 308.773C18.0755 310.135 25.1186 308.387 26.7545 308.136C33.0658 307.165 39.2135 305.168 45.7765 306.66C53.3429 308.379 62.7678 306.961 70.4348 306.961C75.4742 306.961 80.6244 307.193 85.6659 306.928C90.1693 306.691 94.4132 304.957 98.884 304.613C102.676 304.321 106.555 304.546 110.358 304.546C114.224 304.546 117.601 305.862 121.294 306.324C137.693 308.374 154.241 309.981 170.779 309.981H199.765C215.428 309.981 230.725 313.249 246.397 313C253.021 312.895 259.445 310.728 266.057 310.585C268.594 310.53 270.539 310.531 272.834 309.511C274.675 308.693 278.47 309.377 280.349 309.377H289.172C298.778 309.377 307.78 308.934 316.984 311.491C322.198 312.939 327.919 311.045 333.221 312.732C336.287 313.707 339.613 314.812 342.85 314.812C349.777 314.812 357.136 312.081 364.019 312.845C367.383 313.219 391.463 319.093 392.792 313.114C393.511 309.878 393.19 309.952 394.684 307.263C395.715 305.407 394.366 303.674 395.401 301.862C396.154 300.544 394.435 299.168 394.783 297.601C395.8 293.024 395.42 287.724 395.42 282.941C395.42 273.436 396.024 263.206 396.024 253.351C396.024 245.644 395.42 237.945 395.42 230.135C395.42 223.047 393.953 216.924 396.232 210.341C397.794 205.829 396.647 202.291 396.647 197.526C396.647 168.868 395.42 140.085 395.42 111.574C395.42 103.85 393.251 96.1584 396.964 89.2644C398.211 86.947 397.44 85.1595 397.44 82.6218C397.44 81.6961 398.222 78.0393 397.534 77.4888C396.863 76.9524 397.245 74.9309 397.232 74.201C397.162 70.3434 396.628 66.532 396.628 62.6603V46.0873V17.7052C396.628 14.2995 397.869 9.80241 394.213 8.17735C391.122 6.80359 386.803 7.43928 383.343 7.43928C369.072 7.43928 355.3 5.02378 340.937 5.02378C335.189 5.02378 329.413 3.81603 323.559 3.81603C320.799 3.81603 318.289 3.18015 315.44 3.21215C308.302 3.29236 301.13 4.77284 294.103 5.02378C290.868 5.13932 287.795 5.62765 284.542 5.62765C280.968 5.62765 277.322 5.48392 273.807 6.26508C272.073 6.65021 271.053 8.04316 269.21 8.04316H251.329C241.676 8.04316 232.259 7.90997 222.678 7.40573C217.419 7.12893 212.351 5.38378 207.078 5.09088C203.745 4.90569 200.386 5.02378 197.047 5.02378C195.227 5.02378 193.019 4.72804 191.31 4.11797C187.341 2.70029 183.006 6.08418 179.099 4.60828C173.352 2.43731 165.494 3.88764 159.305 4.0044C154.499 4.09509 149.806 6.21215 144.946 4.21215C143.452 4.21215 141.945 4.26961 140.451 4.21215C138.794 4.14841 137.494 2.91738 135.754 3.0044C133.157 3.13423 131.186 5.34943 128.507 5.4199C126.496 5.47284 124.481 5.38265 122.469 5.4199C119.081 5.48264 115.608 5.8535 112.203 6.02378C106.105 6.32867 100.897 7.43928 94.6904 7.43928H67.3148C60.5391 7.43928 53.9841 5.59805 47.3198 4.38636C45.3844 4.03448 43.8293 3.21215 41.8178 3.21215C38.9737 3.21215 36.2115 4.25472 33.3971 3.51409C29.6533 2.5289 24.3713 3.41858 20.7493 4.45345C17.5175 5.37681 12.3653 7.03345 9.84595 9.55284C7.42023 11.9786 5.31689 13.0205 5.31689 16.8329C5.31689 26.1119 6.52464 35.3288 6.52464 44.6112V69.5042V76.8849C6.52464 78.6524 7.42066 83.2798 6.25625 84.7353C4.96643 86.3476 4.10914 87.9822 4.10914 90.1702V119.156C4.10914 142.427 4.71301 165.804 4.71301 188.904C4.71301 201.726 2.90139 213.691 2.90139 226.512C2.90139 236.775 0.965929 247.446 2.76719 257.578C3.54459 261.951 2.90139 266.888 2.90139 271.333C2.90139 275.632 3.50526 279.828 3.50526 284.148C3.50526 288.232 4.10914 292.26 4.10914 296.226C4.10914 299.469 4.35918 306.961 8.94014 306.961Z" fill="white"/>
</g>
<path d="M8.94014 306.961C12.9145 306.961 13.2223 308.773 17.3944 308.773C18.0755 310.135 25.1186 308.387 26.7545 308.136C33.0658 307.165 39.2135 305.168 45.7765 306.66C53.3429 308.379 62.7678 306.961 70.4348 306.961C75.4742 306.961 80.6244 307.193 85.6659 306.928C90.1693 306.691 94.4132 304.957 98.884 304.613C102.676 304.321 106.555 304.546 110.358 304.546C114.224 304.546 117.601 305.862 121.294 306.324C137.693 308.374 154.241 309.981 170.779 309.981H199.765C215.428 309.981 230.725 313.249 246.397 313C253.021 312.895 259.445 310.728 266.057 310.585C268.594 310.53 270.539 310.531 272.834 309.511C274.675 308.693 278.47 309.377 280.349 309.377H289.172C298.778 309.377 307.78 308.934 316.984 311.491C322.198 312.939 327.919 311.045 333.221 312.732C336.287 313.707 339.613 314.812 342.85 314.812C349.777 314.812 357.136 312.081 364.019 312.845C367.383 313.219 391.463 319.093 392.792 313.114C393.511 309.878 393.19 309.952 394.684 307.263C395.715 305.407 394.366 303.674 395.401 301.862C396.154 300.544 394.435 299.168 394.783 297.601C395.8 293.024 395.42 287.724 395.42 282.941C395.42 273.436 396.024 263.206 396.024 253.351C396.024 245.644 395.42 237.945 395.42 230.135C395.42 223.047 393.953 216.924 396.232 210.341C397.794 205.829 396.647 202.291 396.647 197.526C396.647 168.868 395.42 140.085 395.42 111.574C395.42 103.85 393.251 96.1584 396.964 89.2644C398.211 86.947 397.44 85.1595 397.44 82.6218C397.44 81.6961 398.222 78.0393 397.534 77.4888C396.863 76.9524 397.245 74.9309 397.232 74.201C397.162 70.3434 396.628 66.532 396.628 62.6603V46.0873V17.7052C396.628 14.2995 397.869 9.80241 394.213 8.17735C391.122 6.80359 386.803 7.43928 383.343 7.43928C369.072 7.43928 355.3 5.02378 340.937 5.02378C335.189 5.02378 329.413 3.81603 323.559 3.81603C320.799 3.81603 318.289 3.18015 315.44 3.21215C308.302 3.29236 301.13 4.77284 294.103 5.02378C290.868 5.13932 287.795 5.62765 284.542 5.62765C280.968 5.62765 277.322 5.48392 273.807 6.26508C272.073 6.65021 271.053 8.04316 269.21 8.04316H251.329C241.676 8.04316 232.259 7.90997 222.678 7.40573C217.419 7.12893 212.351 5.38378 207.078 5.09088C203.745 4.90569 200.386 5.02378 197.047 5.02378C195.227 5.02378 193.019 4.72804 191.31 4.11797C187.341 2.70029 183.006 6.08418 179.099 4.60828C173.352 2.43731 165.494 3.88764 159.305 4.0044C154.499 4.09509 149.806 6.21215 144.946 4.21215C143.452 4.21215 141.945 4.26961 140.451 4.21215C138.794 4.14841 137.494 2.91738 135.754 3.0044C133.157 3.13423 131.186 5.34943 128.507 5.4199C126.496 5.47284 124.481 5.38265 122.469 5.4199C119.081 5.48264 115.608 5.8535 112.203 6.02378C106.105 6.32867 100.897 7.43928 94.6904 7.43928H67.3148C60.5391 7.43928 53.9841 5.59805 47.3198 4.38636C45.3844 4.03448 43.8293 3.21215 41.8178 3.21215C38.9737 3.21215 36.2115 4.25472 33.3971 3.51409C29.6533 2.5289 24.3713 3.41858 20.7493 4.45345C17.5175 5.37681 12.3653 7.03345 9.84595 9.55284C7.42023 11.9786 5.31689 13.0205 5.31689 16.8329C5.31689 26.1119 6.52464 35.3288 6.52464 44.6112V69.5042V76.8849C6.52464 78.6524 7.42066 83.2798 6.25625 84.7353C4.96643 86.3476 4.10914 87.9822 4.10914 90.1702V119.156C4.10914 142.427 4.71301 165.804 4.71301 188.904C4.71301 201.726 2.90139 213.691 2.90139 226.512C2.90139 236.775 0.965929 247.446 2.76719 257.578C3.54459 261.951 2.90139 266.888 2.90139 271.333C2.90139 275.632 3.50526 279.828 3.50526 284.148C3.50526 288.232 4.10914 292.26 4.10914 296.226C4.10914 299.469 4.35918 306.961 8.94014 306.961Z" stroke="#ADABA7" stroke-width="2" stroke-linecap="round"/>
<defs>
<filter id="filter0_i_57_20" x="1" y="2" width="397.817" height="314.785" filterUnits="userSpaceOnUse" color-interpolation-filters="sRGB">
<feFlood flood-opacity="0" result="BackgroundImageFix"/>
<feBlend mode="normal" in="SourceGraphic" in2="BackgroundImageFix" result="shape"/>
<feColorMatrix in="SourceAlpha" type="matrix" values="0 0 0 0 0 0 0 0 0 0 0 0 0 0 0 0 0 0 127 0" result="hardAlpha"/>
<feOffset/>
<feGaussianBlur stdDeviation="22"/>
<feComposite in2="hardAlpha" operator="arithmetic" k2="-1" k3="1"/>
<feColorMatrix type="matrix" values="0 0 0 0 0.960784 0 0 0 0 0.94902 0 0 0 0 0.921569 0 0 0 1 0"/>
<feBlend mode="normal" in2="shape" result="effect1_innerShadow_57_20"/>
</filter>
</defs>
</svg>
