<svg preserveAspectRatio="none" viewBox="0 0 318 400" fill="none" xmlns="http://www.w3.org/2000/svg">
  <g filter="url(#filter0_i_192_11081)">
    <path d="M79.5413 399.129C78.2225 399.338 76.869 399.338 75.5502 399.129C74.8965 399.048 74.2353 399.02 73.5753 399.045C72.2526 399.086 70.9288 398.99 69.6338 398.759C69.3619 398.709 69.0854 398.679 68.8074 398.669C67.8159 398.564 66.8112 398.738 65.9484 399.164C65.6675 399.303 65.3699 399.421 65.0394 399.568C64.7089 399.714 64.1553 399.672 63.6926 399.7C63.2298 399.728 62.6349 399.7 62.1143 399.791C60.6324 399.993 59.1185 399.958 57.6522 399.686C56.0989 399.411 54.5115 399.299 52.9256 399.352C50.6093 399.4 48.2982 399.144 46.0754 398.592C44.3644 398.155 42.5825 397.948 40.7953 397.979C39.0097 397.954 37.2285 397.822 35.4655 397.581C34.683 397.475 33.9158 397.3 33.1766 397.059C32.4346 396.828 31.6639 396.669 30.8794 396.585C30.3539 396.533 29.8378 396.428 29.3425 396.271C28.1609 395.908 26.9958 395.511 25.8389 395.114C25.594 395.027 25.359 394.922 25.1366 394.8C23.0308 393.75 21.0879 392.483 19.3524 391.029C18.9475 390.66 18.526 390.332 18.0881 389.963C17.3761 389.38 16.7642 388.716 16.2702 387.99C15.8488 387.363 15.3447 386.77 14.882 386.164C14.4192 385.558 14.0556 385.035 13.6094 384.47C13.0294 383.592 12.2683 382.809 11.3618 382.156C10.7378 381.738 10.2442 381.197 9.92405 380.581C9.75879 380.274 9.57703 379.975 9.43655 379.668C8.49455 377.521 7.54428 375.381 6.6436 373.227C6.40203 372.591 6.21422 371.941 6.08166 371.283C5.89987 370.516 5.76768 369.742 5.59416 368.976C5.20579 367.282 4.97444 365.567 4.5778 363.866C4.32164 362.786 4.29681 361.657 4.12329 360.549C3.83849 359.29 3.66449 358.016 3.6027 356.736C3.58911 356.512 3.54755 356.29 3.47874 356.074C3.09863 354.324 2.72686 352.589 2.3137 350.818C2.06232 349.836 2.02033 348.823 2.18973 347.828C2.3617 346.723 2.44722 345.61 2.44584 344.496C2.44584 343.604 2.44584 342.712 2.44584 341.82C2.47206 341.317 2.44443 340.813 2.36323 340.314C2.124 338.88 2.02452 337.433 2.06577 335.986C2.06711 334.98 1.98155 333.976 1.80966 332.981C1.64851 332.043 1.64851 331.09 1.80966 330.151C1.91708 329.454 1.96658 328.709 2.04095 327.991C2.12358 327.154 2.20624 326.325 2.27235 325.488C2.33019 324.791 2.37979 324.157 2.40458 323.488C2.37528 322.15 2.49149 320.814 2.75167 319.494C2.82464 319.163 2.85235 318.826 2.83429 318.49C2.90874 317.042 2.8007 315.591 2.51201 314.162C2.3798 312.161 1.95832 310.175 2.04095 308.16C2.04511 307.213 2.12798 306.268 2.28889 305.33C2.37864 304.835 2.4146 304.333 2.39631 303.832C2.39631 300.709 2.39631 297.559 2.39631 294.471C2.39631 294.248 2.39631 294.018 2.39631 293.774C2.21452 292.164 2.0079 290.561 1.83437 288.95C1.73521 288.009 1.66085 287.062 1.63606 286.121C1.67056 284.783 1.58498 283.446 1.37996 282.12C1.30552 281.564 1.28069 281.005 1.30562 280.447C1.31377 279.165 1.21427 277.884 1.00806 276.613C0.89749 275.839 0.853378 275.058 0.875917 274.278C0.875917 273.051 0.768447 271.832 0.61971 270.612C0.370408 268.783 0.406527 266.934 0.727136 265.112C1.07003 263.634 1.23611 262.13 1.22291 260.623C1.205 260.123 1.25775 259.622 1.37996 259.132C1.58722 258.199 1.68408 257.251 1.66915 256.302C1.66915 255.521 1.66915 254.741 1.66915 253.96C1.66915 253.263 1.73521 252.622 1.83437 251.966C1.95008 251.191 1.95008 250.407 1.83437 249.631C1.73657 248.968 1.6842 248.3 1.67742 247.631C1.67742 244.397 1.62786 241.17 1.59481 237.935C1.54444 236.767 1.65809 235.597 1.93353 234.45C1.69318 233.3 1.59627 232.132 1.64434 230.965C1.64434 228.177 1.59476 225.389 1.64434 222.601C1.59614 221.15 1.68461 219.698 1.90881 218.258C1.96241 217.818 1.96241 217.374 1.90881 216.934C1.85923 216.098 1.75175 215.261 1.74349 214.432C1.69942 211.811 1.67466 209.19 1.66915 206.569C1.66915 204.478 1.66915 202.332 1.66915 200.213C1.66915 197.318 1.66915 194.42 1.66915 191.521C1.66915 190.294 1.58649 189.074 1.43776 187.847C1.27249 186.453 1.28904 185.059 1.25599 183.665C1.24369 182.775 1.17751 181.887 1.05768 181.003C0.959863 180.171 0.9157 179.336 0.925444 178.5C0.946363 177.609 0.871675 176.718 0.702322 175.838C0.613194 175.398 0.569034 174.953 0.570184 174.506C0.570184 172.415 0.570184 170.269 0.570184 168.15C0.568821 167.593 0.629663 167.038 0.751949 166.491C0.910079 165.664 0.973706 164.826 0.941986 163.988C0.941986 162.539 0.941986 161.089 0.941986 159.646C0.941986 158.865 1.07419 158.085 1.14029 157.311C1.14029 156.753 1.256 156.196 1.26426 155.645C1.26426 152.634 1.26423 149.623 1.33033 146.584C1.33033 145.524 1.4378 144.493 1.47911 143.412C1.47911 142.966 1.47911 142.527 1.47911 142.081C1.42941 141.582 1.42941 141.081 1.47911 140.582C1.65351 139.534 1.73365 138.476 1.71878 137.418C1.71878 135.02 1.71878 132.622 1.71878 130.225C1.69353 129.059 1.77914 127.894 1.97488 126.74C2.20626 125.469 2.20626 124.176 1.97488 122.906C1.81793 122.136 1.81793 121.348 1.97488 120.578C2.12304 119.863 2.12304 119.132 1.97488 118.417C1.8438 117.646 1.76652 116.868 1.74349 116.089C1.70217 115.085 1.74355 114.082 1.70223 113.078C1.71319 112.689 1.69104 112.3 1.63606 111.914C1.45029 110.759 1.37025 109.594 1.3965 108.429C1.36345 106.152 1.33316 103.868 1.30562 101.577C1.31235 100.796 1.25708 100.016 1.14029 99.242C0.921268 97.9708 0.921268 96.6796 1.14029 95.4084C1.26689 94.6347 1.32762 93.8543 1.32206 93.0733C1.32206 90.2365 1.32206 87.3926 1.32206 84.5488C1.34172 84.1036 1.3113 83.6578 1.23118 83.2175C0.993484 81.95 0.899438 80.6663 0.950257 79.3838C0.950257 76.5957 0.950257 73.8077 0.950257 71.0196C0.958431 70.3527 1.01636 69.6868 1.12375 69.0261C1.2807 68.2557 1.2807 67.4684 1.12375 66.698C0.977981 65.9261 0.922666 65.1441 0.958529 64.363C0.99273 63.3583 0.898566 62.3535 0.677609 61.3658C0.472464 60.4881 0.452825 59.5867 0.61971 58.7032C0.718885 57.9854 0.718885 57.2602 0.61971 56.5424C0.520552 55.713 0.504006 54.8765 0.495742 54.0401C0.495742 51.3078 0.495742 48.5755 0.495742 45.8431C0.526099 44.8965 0.456969 43.9495 0.289163 43.0132C0.218933 42.682 0.185739 42.346 0.190009 42.0095C0.190009 39.7303 0.140434 37.444 0.090855 35.1578C0.04089 33.8698 0.322814 32.588 0.917172 31.4008C1.20259 30.778 1.42921 30.137 1.59481 29.484C1.86587 28.4493 2.28195 27.4455 2.83429 26.4938C2.96334 26.2979 3.07121 26.0926 3.15656 25.8804C3.85893 24.0821 4.76781 22.3465 5.56107 20.5761C5.91867 19.7371 6.34387 18.9196 6.83363 18.1295C7.05674 17.788 7.2716 17.4325 7.46991 17.091C8.38744 15.4797 9.6036 14.002 11.0726 12.7137C11.899 11.94 12.7253 11.1524 13.5516 10.3368C14.3325 9.58848 15.1776 8.88958 16.0801 8.24577C17.3196 7.3257 18.6335 6.46837 19.8895 5.56921C20.5912 5.04128 21.4468 4.68042 22.3684 4.52368C24.0648 4.25216 25.6598 3.64278 27.0206 2.74627C27.1776 2.64869 27.3428 2.56504 27.5081 2.46745C28.3337 1.99387 29.3031 1.73018 30.3011 1.7077C31.8215 1.7077 33.3419 1.7077 34.8624 1.7077C35.6887 1.7077 36.5811 1.78438 37.4322 1.76346C38.1592 1.75713 38.8839 1.69412 39.5971 1.57527C40.5693 1.40372 41.5631 1.33581 42.5553 1.37313C43.9508 1.45269 45.3517 1.31325 46.6869 0.961894C48.2829 0.560945 49.9828 0.560945 51.5787 0.961894C52.982 1.28938 54.4376 1.42816 55.8921 1.37313C56.2904 1.36634 56.6879 1.3384 57.082 1.28948C58.4462 1.0932 59.8305 1.0138 61.2136 1.0525C62.5367 1.07189 63.8544 0.907038 65.1138 0.564586C65.37 0.501854 65.6261 0.446089 65.874 0.376387C67.0065 0.0518494 68.2262 0.0106976 69.3858 0.257895C70.0303 0.390329 70.6832 0.48094 71.336 0.571552C72.8364 0.827779 74.3913 0.731336 75.8311 0.292748C76.6988 -0.00995032 77.6617 -0.0590218 78.5663 0.153346C79.6523 0.345584 80.7637 0.415897 81.8716 0.362454C84.3505 0.362454 86.7633 0.362454 89.2092 0.362454C89.738 0.362454 90.2669 0.362454 90.7957 0.362454C92.58 0.303068 94.3663 0.422391 96.1173 0.717932C97.9431 0.975581 99.7956 1.07368 101.645 1.01068C103.695 1.01068 105.777 1.05251 107.793 1.05948C108.983 1.09608 110.163 1.24572 111.313 1.50557C113.048 1.85357 114.826 2.02902 116.61 2.02834C120.444 2.02834 124.278 2.02834 128.112 2.02834C129.434 2.02834 130.748 2.02834 132.07 2.02834C133.592 2.0494 135.113 1.97952 136.623 1.81923C139.449 1.54174 142.3 1.50437 145.134 1.7077C146.318 1.80277 147.488 1.99181 148.63 2.27229C150.908 2.85696 153.308 3.02566 155.67 2.76718C156.524 2.6684 157.392 2.68486 158.24 2.81596C158.952 2.92266 159.673 2.98787 160.396 3.01113C161.255 3.02248 162.112 3.09007 162.958 3.21327C163.801 3.37692 164.677 3.37692 165.52 3.21327C166.602 2.96963 167.742 2.96963 168.825 3.21327C169.66 3.38118 170.521 3.44227 171.378 3.39449C172.965 3.39449 174.551 3.30388 176.138 3.31085C179.443 3.31085 182.748 3.35268 186.054 3.38753C187.045 3.40839 188.036 3.34534 189.012 3.19933C189.788 3.07391 190.577 3.01089 191.367 3.01113C194.275 3.01113 197.151 2.89961 200.093 3.01113C201.407 3.05992 202.737 3.01113 204.059 3.01113C204.454 3.01121 204.847 2.97617 205.232 2.90658C206.204 2.73295 207.199 2.66966 208.191 2.71838C208.918 2.71838 209.645 2.71838 210.372 2.71838C211.033 2.70414 211.694 2.73914 212.347 2.82294C213.39 2.97132 214.446 3.03666 215.504 3.01811C216.627 3.01811 217.751 3.01811 218.867 3.01811C219.595 3.02855 220.321 3.08446 221.04 3.18538C222.205 3.40051 223.414 3.38142 224.568 3.12963C224.951 3.0425 225.345 2.99337 225.742 2.98325C229.1 2.74741 232.47 2.65436 235.839 2.70445C236.763 2.75943 237.692 2.69121 238.591 2.50231C239.415 2.3078 240.295 2.36964 241.07 2.67656C241.861 2.97182 242.727 3.09867 243.59 3.04598C244.975 3.04566 246.357 2.94774 247.722 2.75323C249.096 2.50332 250.526 2.57809 251.853 2.96931C252.917 3.27134 254.038 3.4037 255.159 3.35964C256.149 3.35149 257.138 3.40976 258.117 3.5339C260.089 3.73023 262.079 3.76291 264.058 3.63148C264.714 3.56655 265.359 3.44271 265.983 3.26206C267.057 2.98762 268.197 2.95876 269.289 3.17842C269.925 3.30388 270.569 3.45026 271.206 3.59664C272.279 3.85707 273.394 3.97465 274.511 3.94515C275.767 3.8882 277.026 3.97495 278.254 4.20304C279.29 4.40521 280.367 4.40521 281.402 4.20304C283.624 3.88534 285.899 3.95412 288.087 4.40517C288.475 4.47639 288.847 4.60121 289.186 4.77459C289.648 4.98181 290.092 5.21466 290.517 5.47162C291.507 6.13185 292.663 6.59204 293.896 6.81687C295.318 7.08722 296.641 7.64182 297.755 8.43396C299.603 9.60868 301.341 10.902 302.953 12.3024C303.449 12.7485 303.911 13.2155 304.391 13.6965C304.87 14.1774 305.143 14.4702 305.564 14.8257C306.385 15.5517 307.152 16.3199 307.861 17.1258C308.582 17.9247 309.207 18.7816 309.729 19.6839C310.446 20.8162 311.046 21.9985 311.522 23.2178C311.698 23.6362 311.902 24.0457 312.133 24.4446C313.585 27.2567 314.832 30.1407 315.868 33.0807C316.091 33.7777 316.364 34.4747 316.637 35.1717C316.895 35.8064 317.023 36.4734 317.017 37.1443C317.112 38.983 317.021 40.8252 316.744 42.6508C316.669 43.1477 316.645 43.649 316.67 44.1494C316.67 48.4988 316.67 52.8482 316.628 57.1976C316.62 57.9764 316.554 58.7539 316.43 59.5257C316.322 60.1884 316.275 60.8572 316.29 61.5261C316.372 63.0301 316.264 64.5373 315.967 66.0219C315.917 66.2399 315.894 66.462 315.901 66.6841C315.901 68.3012 315.885 69.9276 315.852 71.5632V85.9428C315.852 90.2922 315.852 94.6416 315.852 98.9911C315.852 102.616 315.852 106.233 315.785 109.858C315.814 110.136 315.814 110.416 315.785 110.694C315.507 112.576 315.402 114.473 315.471 116.368C315.515 117.872 315.402 119.376 315.133 120.864C315.041 121.415 315.017 121.973 315.058 122.529C315.058 123.812 315.058 125.095 315.058 126.377C314.988 127.937 315.079 129.5 315.331 131.047C315.408 131.544 315.436 132.045 315.414 132.546C315.414 136.895 315.463 141.245 315.505 145.587C315.493 146.2 315.532 146.812 315.62 147.42C315.76 148.361 315.827 149.309 315.819 150.257C315.819 153.38 315.843 156.502 315.893 159.625C315.871 160.014 315.89 160.403 315.951 160.789C316.224 162.334 316.321 163.898 316.24 165.459C316.171 166.964 316.26 168.47 316.504 169.962C316.574 170.513 316.574 171.069 316.504 171.621C316.463 172.318 316.372 172.959 316.356 173.621C316.356 176.019 316.356 178.417 316.273 180.814C316.274 181.426 316.214 182.037 316.091 182.641C315.934 183.466 315.868 184.301 315.893 185.136C315.893 186.363 315.893 187.59 315.893 188.816C315.893 189.513 315.752 190.148 315.686 190.817C315.62 191.486 315.529 192.037 315.521 192.643C315.521 195.989 315.447 199.334 315.521 202.673C315.521 203.844 315.174 204.98 315.389 206.158C315.517 207.268 315.559 208.383 315.513 209.497C315.545 210.332 315.481 211.168 315.323 211.992C315.23 212.544 315.192 213.101 315.207 213.658C315.207 215.749 315.207 217.785 315.207 219.848C315.197 220.461 315.241 221.073 315.339 221.681C315.489 222.563 315.561 223.453 315.554 224.343C315.554 228.47 315.604 232.596 315.628 236.723C315.63 237.446 315.693 238.168 315.819 238.883C315.933 239.658 315.985 240.438 315.975 241.218C315.975 244.174 315.975 247.122 315.975 250.078C315.975 255.375 315.992 260.67 316.025 265.963C316.025 269.448 316.025 272.877 316.025 276.334C316.025 276.892 316.099 277.443 316.141 278C316.199 278.697 316.298 279.443 316.314 280.168C316.364 282.001 316.372 283.841 316.405 285.681C316.395 286.129 316.423 286.576 316.488 287.02C316.679 288.235 316.784 289.46 316.802 290.686C316.802 291.383 316.942 292.017 316.992 292.68C317.058 293.46 317.116 294.241 317.149 295.015C317.154 296.242 317.243 297.469 317.413 298.688C317.485 299.185 317.516 299.686 317.504 300.186C317.504 301.748 317.62 303.302 317.826 304.857C317.948 306.248 317.987 307.644 317.942 309.039C317.942 309.931 317.942 310.823 317.942 311.715C317.93 312.329 317.872 312.941 317.769 313.548C317.592 314.371 317.592 315.214 317.769 316.037C317.828 316.266 317.861 316.499 317.868 316.734C318 319.129 317.959 321.529 317.744 323.92C317.649 324.638 317.649 325.363 317.744 326.081C317.853 326.856 317.908 327.635 317.909 328.416C317.909 330.2 317.909 331.985 317.909 333.769C317.916 334.55 317.861 335.33 317.744 336.104C317.661 336.657 317.619 337.213 317.62 337.77C317.62 339.268 317.579 340.774 317.537 342.28C317.525 342.892 317.475 343.504 317.388 344.113C317.31 344.61 317.31 345.114 317.388 345.611C317.442 345.942 317.442 346.277 317.388 346.608C317.16 348.493 317.064 350.387 317.099 352.282C317.099 354.066 317.099 355.851 317.099 357.635C317.163 358.803 317.06 359.973 316.794 361.12C316.758 361.229 316.739 361.342 316.736 361.455C316.785 363.406 316.314 365.337 316.347 367.289C316.347 367.902 316.347 368.515 316.347 369.129C316.361 370.026 316.127 370.914 315.661 371.722C315.017 372.939 314.465 374.189 314.009 375.465C312.984 378.002 311.811 380.483 310.621 382.965C310.083 384.165 309.236 385.251 308.142 386.143C307.165 386.974 306.139 387.763 305.068 388.506C304.549 388.849 304.062 389.227 303.614 389.635C302.363 390.715 300.915 391.619 299.325 392.312C296.235 393.706 293.128 395.058 289.905 396.229C288.385 396.778 286.774 397.131 285.129 397.275C282.65 397.477 280.287 397.832 277.874 398.146C277.279 398.216 276.692 398.271 276.106 398.327C275.18 398.411 274.263 398.494 273.346 398.564C272.751 398.613 272.156 398.655 271.569 398.669C269.983 398.669 268.396 398.683 266.81 398.71C265.884 398.716 264.96 398.768 264.041 398.864C262.141 399.059 260.232 399.205 258.332 399.345C257.275 399.405 256.213 399.347 255.175 399.171C254.525 399.078 253.868 399.026 253.208 399.017C252.614 399.017 252.019 399.052 251.424 399.017C249.836 398.958 248.248 399.118 246.722 399.491C245.368 399.839 243.917 399.803 242.59 399.387C241.53 399.072 240.409 398.927 239.285 398.961C237.903 399.022 236.518 398.954 235.153 398.759C234.957 398.729 234.758 398.713 234.558 398.71C232.079 398.71 229.7 398.32 227.27 398.083C225.897 397.978 224.518 397.931 223.139 397.944C221.949 397.944 220.759 397.944 219.577 398C218.751 398 217.859 398.104 217.007 398.174C213.991 398.425 210.984 398.836 207.918 398.662C207.092 398.62 206.34 398.557 205.555 398.453C204.191 398.271 202.811 398.146 201.423 398.055C200.766 398.02 200.106 398.049 199.456 398.139C198.54 398.249 197.614 398.3 196.688 398.292C194.705 398.292 192.722 398.292 190.739 398.292C189.22 398.346 187.699 398.28 186.194 398.097C185.475 397.993 184.74 397.993 184.021 398.097C182.187 398.311 180.334 398.385 178.485 398.32C177.096 398.32 175.708 398.32 174.353 398.285C173.423 398.263 172.496 398.383 171.618 398.641C170.048 399.118 168.329 399.118 166.759 398.641C165.94 398.418 165.083 398.312 164.222 398.327C162.371 398.327 160.52 398.327 158.669 398.327C158.012 398.33 157.356 398.386 156.711 398.494C155.675 398.697 154.599 398.697 153.563 398.494C152.659 398.331 151.724 398.331 150.819 398.494C148.726 398.78 146.592 398.78 144.498 398.494C143.722 398.355 142.919 398.355 142.143 398.494C141.308 398.665 140.448 398.735 139.59 398.704C138.794 398.668 137.998 398.76 137.243 398.975C135.338 399.464 133.317 399.538 131.368 399.191C130.28 398.985 129.151 398.985 128.063 399.191C127.16 399.392 126.205 399.345 125.336 399.059C125.03 398.961 124.708 398.885 124.394 398.808C123.754 398.654 123.081 398.628 122.427 398.731C122.166 398.759 121.909 398.808 121.659 398.878C120.01 399.296 118.287 399.463 116.569 399.373C114.519 399.373 112.437 399.373 110.421 399.317C109.1 399.311 107.78 399.386 106.471 399.54C104.048 399.833 101.589 399.833 99.1663 399.54C96.5551 399.143 93.8735 399.219 91.2998 399.763C90.1593 400.063 88.9409 400.083 87.7879 399.819C87.0217 399.642 86.2249 399.578 85.4329 399.631C83.8486 399.734 82.255 399.618 80.7147 399.289C80.3511 399.212 80.0206 399.191 79.5413 399.129Z" fill="white" />
  </g>
  <defs>
    <filter id="filter0_i_192_11081" x="-1" y="-1" width="320" height="402" filterUnits="userSpaceOnUse" color-interpolation-filters="sRGB">
      <feFlood flood-opacity="0" result="BackgroundImageFix" />
      <feBlend mode="normal" in="SourceGraphic" in2="BackgroundImageFix" result="shape" />
      <feColorMatrix in="SourceAlpha" type="matrix" values="0 0 0 0 0 0 0 0 0 0 0 0 0 0 0 0 0 0 127 0" result="hardAlpha" />
      <feOffset />
      <feGaussianBlur stdDeviation="4" />
      <feComposite in2="hardAlpha" operator="arithmetic" k2="-1" k3="1" />
      <feColorMatrix type="matrix" values="0 0 0 0 0 0 0 0 0 0 0 0 0 0 0 0 0 0 0.75 0" />
      <feBlend mode="multiply" in2="shape" result="effect1_innerShadow_192_11081" />
    </filter>
  </defs>
</svg>