<svg preserveAspectRatio="none"  viewBox="0 0 318 400" fill="none" xmlns="http://www.w3.org/2000/svg">
<g clip-path="url(#clip0_57_27)">
<g filter="url(#filter0_i_57_27)">
<path d="M79.4601 399.11C78.1401 399.32 76.7901 399.32 75.4701 399.11C74.8201 399.03 74.1601 399 73.5001 399.03C72.1801 399.07 70.8501 398.97 69.5601 398.74C69.2901 398.69 69.0101 398.66 68.7301 398.65C67.7401 398.54 66.7301 398.72 65.8701 399.14C65.5901 399.28 65.2901 399.4 64.9601 399.54C64.6301 399.69 64.0801 399.64 63.6101 399.67C63.1501 399.7 62.5501 399.67 62.0301 399.76C60.5501 399.96 59.0301 399.93 57.5701 399.66C56.0201 399.39 54.4301 399.27 52.8401 399.33C50.5201 399.38 48.2101 399.12 45.9901 398.57C44.2801 398.13 42.5001 397.93 40.7101 397.96C38.9201 397.94 37.1401 397.8 35.3801 397.56C34.6001 397.45 33.8301 397.28 33.0901 397.04C32.3501 396.81 31.5801 396.65 30.7901 396.57C30.2601 396.52 29.7501 396.41 29.2501 396.26C28.0701 395.9 26.9001 395.5 25.7501 395.1C25.5101 395.01 25.2701 394.91 25.0501 394.79C22.9401 393.74 21.0001 392.47 19.2701 391.02C18.8701 390.65 18.4401 390.32 18.0101 389.95C17.3001 389.37 16.6901 388.7 16.1901 387.98C15.7701 387.35 15.2601 386.76 14.8001 386.15C14.3401 385.54 13.9701 385.02 13.5301 384.46C12.9501 383.58 12.1901 382.8 11.2801 382.15C10.6601 381.73 10.1601 381.19 9.84009 380.57C9.67009 380.26 9.49009 379.96 9.35009 379.66C8.41009 377.51 7.46009 375.37 6.56009 373.22C6.32009 372.58 6.13009 371.93 6.00009 371.28C5.82009 370.51 5.69009 369.74 5.51009 368.97C5.12009 367.28 4.89009 365.56 4.49009 363.86C4.23009 362.78 4.21009 361.65 4.04009 360.54C3.76009 359.28 3.58009 358.01 3.52009 356.73C3.51009 356.51 3.46009 356.28 3.40009 356.07C3.02009 354.32 2.65009 352.58 2.23009 350.81C1.98009 349.83 1.94009 348.82 2.11009 347.82C2.28009 346.71 2.37009 345.6 2.37009 344.49C2.37009 343.6 2.37009 342.71 2.37009 341.81C2.40009 341.31 2.37009 340.8 2.29009 340.3C2.05009 338.87 1.95009 337.42 1.99009 335.97C1.99009 334.96 1.91009 333.96 1.73009 332.96C1.57009 332.02 1.57009 331.07 1.73009 330.13C1.84009 329.43 1.89009 328.69 1.96009 327.97C2.04009 327.13 2.13009 326.3 2.19009 325.47C2.25009 324.77 2.30009 324.14 2.32009 323.47C2.29009 322.13 2.41009 320.8 2.67009 319.48C2.74009 319.15 2.77009 318.81 2.75009 318.48C2.82009 317.03 2.72009 315.58 2.43009 314.15C2.30009 312.15 1.88009 310.16 1.96009 308.15C1.96009 307.2 2.05009 306.26 2.21009 305.32C2.30009 304.83 2.34009 304.32 2.32009 303.82C2.32009 300.7 2.32009 297.55 2.32009 294.46C2.32009 294.24 2.32009 294.01 2.32009 293.76C2.14009 292.15 1.93009 290.55 1.76009 288.94C1.66009 288 1.59009 287.05 1.56009 286.11C1.59009 284.77 1.51009 283.44 1.30009 282.11C1.23009 281.55 1.20009 281 1.23009 280.44C1.24009 279.16 1.14009 277.88 0.93009 276.61C0.82009 275.84 0.78009 275.06 0.80009 274.28C0.80009 273.05 0.690091 271.83 0.540091 270.61C0.290091 268.78 0.33009 266.93 0.65009 265.11C0.99009 263.63 1.16009 262.13 1.15009 260.62C1.13009 260.12 1.18009 259.62 1.31009 259.13C1.52009 258.2 1.61009 257.25 1.60009 256.3C1.60009 255.52 1.60009 254.74 1.60009 253.96C1.60009 253.26 1.67009 252.62 1.77009 251.97C1.89009 251.19 1.89009 250.41 1.77009 249.63C1.67009 248.97 1.62009 248.3 1.61009 247.63C1.61009 244.4 1.56009 241.17 1.53009 237.93C1.48009 236.76 1.59009 235.59 1.87009 234.44C1.63009 233.29 1.53009 232.12 1.58009 230.95C1.58009 228.16 1.53009 225.37 1.58009 222.59C1.53009 221.14 1.62009 219.69 1.84009 218.25C1.89009 217.81 1.89009 217.37 1.84009 216.93C1.79009 216.09 1.68009 215.26 1.67009 214.43C1.63009 211.81 1.60009 209.19 1.60009 206.57C1.60009 204.48 1.60009 202.33 1.60009 200.21C1.60009 197.31 1.60009 194.42 1.60009 191.52C1.60009 190.29 1.52009 189.07 1.37009 187.85C1.20009 186.46 1.22009 185.06 1.19009 183.67C1.18009 182.78 1.11009 181.89 0.99009 181.01C0.89009 180.18 0.85009 179.34 0.86009 178.51C0.88009 177.62 0.81009 176.73 0.64009 175.85C0.55009 175.41 0.51009 174.97 0.51009 174.52C0.51009 172.43 0.51009 170.28 0.51009 168.16C0.51009 167.6 0.57009 167.05 0.69009 166.5C0.85009 165.67 0.91009 164.84 0.88009 164C0.88009 162.55 0.88009 161.1 0.88009 159.66C0.88009 158.88 1.01009 158.1 1.08009 157.33C1.08009 156.77 1.20009 156.21 1.20009 155.66C1.20009 152.65 1.20009 149.64 1.27009 146.6C1.27009 145.54 1.38009 144.51 1.42009 143.43C1.42009 142.98 1.42009 142.54 1.42009 142.1C1.37009 141.6 1.37009 141.1 1.42009 140.6C1.59009 139.55 1.67009 138.49 1.66009 137.44C1.66009 135.04 1.66009 132.64 1.66009 130.25C1.63009 129.08 1.72009 127.92 1.92009 126.76C2.15009 125.49 2.15009 124.2 1.92009 122.93C1.76009 122.16 1.76009 121.37 1.92009 120.6C2.07009 119.88 2.07009 119.15 1.92009 118.44C1.79009 117.67 1.71009 116.89 1.69009 116.11C1.65009 115.11 1.69009 114.1 1.65009 113.1C1.66009 112.71 1.64009 112.32 1.58009 111.94C1.39009 110.79 1.31009 109.62 1.34009 108.45C1.31009 106.17 1.28009 103.89 1.25009 101.6C1.26009 100.82 1.20009 100.04 1.08009 99.2601C0.860091 97.9901 0.860091 96.7001 1.08009 95.4301C1.21009 94.6601 1.27009 93.8801 1.26009 93.0901C1.26009 90.2501 1.26009 87.4101 1.26009 84.5701C1.28009 84.1201 1.25009 83.6801 1.17009 83.2401C0.93009 81.9701 0.84009 80.6901 0.89009 79.4101C0.89009 76.6201 0.89009 73.8301 0.89009 71.0501C0.90009 70.3801 0.96009 69.7201 1.06009 69.0601C1.22009 68.2901 1.22009 67.5001 1.06009 66.7301C0.91009 65.9601 0.86009 65.1801 0.89009 64.4001C0.92009 63.4001 0.83009 62.3901 0.61009 61.4001C0.400091 60.5201 0.39009 59.6201 0.55009 58.7401C0.65009 58.0201 0.65009 57.3001 0.55009 56.5801C0.45009 55.7501 0.43009 54.9101 0.43009 54.0801C0.43009 51.3501 0.43009 48.6201 0.43009 45.8801C0.46009 44.9301 0.39009 43.9901 0.22009 43.0501C0.15009 42.7201 0.12009 42.3801 0.12009 42.0501C0.12009 39.7701 0.0700905 37.4801 0.0200905 35.2001C-0.0299095 33.9101 0.25009 32.6301 0.850091 31.4401C1.14009 30.8201 1.36009 30.1801 1.53009 29.5201C1.80009 28.4901 2.22009 27.4801 2.77009 26.5301C2.90009 26.3301 3.01009 26.1301 3.09009 25.9201C3.79009 24.1201 4.70009 22.3901 5.49009 20.6201C5.85009 19.7801 6.27009 18.9601 6.76009 18.1701C6.98009 17.8301 7.20009 17.4701 7.40009 17.1301C8.32009 15.5201 9.53009 14.0401 11.0001 12.7501C11.8301 11.9801 12.6501 11.1901 13.4801 10.3701C14.2601 9.62011 15.1101 8.92011 16.0101 8.28011C17.2501 7.36011 18.5601 6.50011 19.8201 5.60011C20.5201 5.07011 21.3801 4.71011 22.3001 4.55011C24.0001 4.28011 25.5901 3.67011 26.9501 2.77011C27.1101 2.67011 27.2701 2.59011 27.4401 2.49011C28.2701 2.02011 29.2401 1.75011 30.2301 1.73011C31.7501 1.73011 33.2701 1.73011 34.7901 1.73011C35.6201 1.73011 36.5101 1.81011 37.3601 1.79011C38.0901 1.78011 38.8101 1.72011 39.5201 1.60011C40.4901 1.43011 41.4901 1.36011 42.4801 1.40011C43.8801 1.48011 45.2801 1.34011 46.6101 0.990114C48.2101 0.590114 49.9101 0.590114 51.5001 0.990114C52.9001 1.32011 54.3601 1.46011 55.8101 1.40011C56.2101 1.39011 56.6101 1.37011 57.0001 1.32011C58.3601 1.12011 59.7501 1.04011 61.1301 1.08011C62.4501 1.10011 63.7701 0.930114 65.0301 0.590114C65.2901 0.530114 65.5401 0.470114 65.7901 0.400114C66.9201 0.0801143 68.1401 0.0301143 69.3001 0.280114C69.9401 0.410114 70.6001 0.500114 71.2501 0.590114C72.7501 0.850114 74.3101 0.750114 75.7501 0.310114C76.6201 0.0101143 77.5801 -0.0398857 78.4901 0.170114C79.5801 0.360114 80.6901 0.430114 81.8001 0.380114C84.2801 0.380114 86.6901 0.380114 89.1401 0.380114C89.6701 0.380114 90.2001 0.380114 90.7301 0.380114C92.5101 0.320114 94.3001 0.440114 96.0501 0.740114C97.8801 1.00011 99.7301 1.10011 101.58 1.03011C103.63 1.03011 105.71 1.07011 107.73 1.08011C108.92 1.12011 110.1 1.27011 111.25 1.53011C112.98 1.88011 114.76 2.05011 116.55 2.05011C120.38 2.05011 124.22 2.05011 128.05 2.05011C129.37 2.05011 130.69 2.05011 132.01 2.05011C133.53 2.07011 135.05 2.00011 136.56 1.84011C139.39 1.56011 142.24 1.53011 145.07 1.73011C146.25 1.83011 147.42 2.01011 148.57 2.29011C150.85 2.87011 153.25 3.04011 155.61 2.78011C156.46 2.68011 157.33 2.70011 158.18 2.83011C158.89 2.94011 159.61 3.00011 160.34 3.03011C161.2 3.04011 162.06 3.11011 162.9 3.23011C163.74 3.39011 164.62 3.39011 165.46 3.23011C166.54 2.99011 167.68 2.99011 168.76 3.23011C169.6 3.40011 170.46 3.46011 171.31 3.41011C172.9 3.41011 174.48 3.32011 176.07 3.33011C179.37 3.33011 182.68 3.37011 185.99 3.41011C186.98 3.43011 187.97 3.37011 188.95 3.22011C189.73 3.09011 190.52 3.03011 191.31 3.03011C194.22 3.03011 197.09 2.92011 200.04 3.03011C201.35 3.08011 202.68 3.03011 204.01 3.03011C204.4 3.03011 204.8 3.00011 205.18 2.93011C206.15 2.76011 207.15 2.69011 208.14 2.74011C208.87 2.74011 209.59 2.74011 210.32 2.74011C210.98 2.73011 211.64 2.76011 212.3 2.84011C213.34 2.99011 214.4 3.05011 215.46 3.04011C216.58 3.04011 217.71 3.04011 218.82 3.04011C219.55 3.05011 220.27 3.11011 220.99 3.21011C222.16 3.43011 223.36 3.41011 224.52 3.15011C224.9 3.06011 225.3 3.01011 225.69 3.00011C229.05 2.76011 232.42 2.67011 235.79 2.72011C236.71 2.77011 237.64 2.71011 238.54 2.52011C239.36 2.33011 240.24 2.39011 241.02 2.69011C241.81 2.99011 242.68 3.11011 243.54 3.06011C244.93 3.06011 246.31 2.96011 247.67 2.77011C249.04 2.52011 250.47 2.59011 251.8 2.99011C252.86 3.29011 253.98 3.42011 255.11 3.38011C256.1 3.37011 257.09 3.43011 258.07 3.55011C260.04 3.75011 262.03 3.78011 264.01 3.65011C264.67 3.59011 265.31 3.46011 265.93 3.28011C267 3.01011 268.14 2.98011 269.24 3.20011C269.88 3.33011 270.52 3.47011 271.16 3.62011C272.23 3.88011 273.35 4.00011 274.46 3.97011C275.72 3.91011 276.98 4.00011 278.2 4.23011C279.24 4.43011 280.31 4.43011 281.35 4.23011C283.57 3.91011 285.85 3.98011 288.03 4.43011C288.42 4.50011 288.79 4.63011 289.13 4.80011C289.59 5.01011 290.04 5.24011 290.46 5.50011C291.45 6.16011 292.61 6.62011 293.84 6.85011C295.26 7.12011 296.58 7.67011 297.7 8.47011C299.55 9.64011 301.29 10.9401 302.9 12.3401C303.4 12.7901 303.86 13.2501 304.34 13.7301C304.82 14.2101 305.09 14.5001 305.51 14.8601C306.33 15.5901 307.1 16.3501 307.81 17.1601C308.53 17.9601 309.16 18.8201 309.68 19.7201C310.4 20.8501 311 22.0301 311.47 23.2501C311.65 23.6701 311.85 24.0801 312.08 24.4801C313.53 27.2901 314.78 30.1801 315.82 33.1201C316.04 33.8201 316.32 34.5101 316.59 35.2101C316.85 35.8401 316.98 36.5101 316.97 37.1801C317.07 39.0201 316.97 40.8601 316.7 42.6901C316.63 43.1901 316.6 43.6901 316.63 44.1901C316.63 48.5401 316.63 52.8901 316.59 57.2401C316.58 58.0201 316.52 58.8001 316.39 59.5701C316.28 60.2301 316.24 60.9001 316.25 61.5701C316.33 63.0701 316.22 64.5801 315.93 66.0701C315.88 66.2901 315.86 66.5101 315.86 66.7301C315.86 68.3501 315.84 69.9701 315.81 71.6101V85.9901C315.81 90.3401 315.81 94.6901 315.81 99.0401C315.81 102.66 315.81 106.28 315.74 109.91C315.77 110.19 315.77 110.47 315.74 110.75C315.46 112.63 315.36 114.53 315.43 116.42C315.47 117.92 315.36 119.43 315.09 120.92C315 121.47 314.97 122.03 315.02 122.59C315.02 123.87 315.02 125.16 315.02 126.44C314.95 128 315.04 129.56 315.29 131.11C315.37 131.61 315.4 132.11 315.37 132.61C315.37 136.96 315.42 141.31 315.46 145.65C315.45 146.26 315.49 146.87 315.57 147.48C315.71 148.42 315.78 149.37 315.77 150.32C315.77 153.44 315.79 156.56 315.84 159.69C315.82 160.08 315.84 160.47 315.9 160.85C316.17 162.39 316.27 163.96 316.19 165.52C316.12 167.03 316.21 168.53 316.45 170.02C316.52 170.57 316.52 171.13 316.45 171.68C316.41 172.38 316.32 173.02 316.3 173.68C316.3 176.08 316.3 178.48 316.22 180.87C316.22 181.48 316.16 182.09 316.04 182.7C315.88 183.52 315.82 184.36 315.84 185.19C315.84 186.42 315.84 187.64 315.84 188.87C315.84 189.57 315.7 190.2 315.63 190.87C315.56 191.54 315.47 192.09 315.46 192.7C315.46 196.05 315.39 199.39 315.46 202.73C315.46 203.9 315.11 205.04 315.33 206.22C315.46 207.33 315.5 208.44 315.45 209.56C315.48 210.4 315.42 211.23 315.26 212.06C315.17 212.61 315.13 213.17 315.14 213.73C315.14 215.82 315.14 217.86 315.14 219.92C315.13 220.53 315.17 221.14 315.27 221.75C315.42 222.63 315.49 223.52 315.48 224.41C315.48 228.54 315.53 232.66 315.55 236.79C315.55 237.51 315.62 238.23 315.74 238.95C315.85 239.73 315.91 240.51 315.9 241.29C315.9 244.25 315.9 247.19 315.9 250.15C315.9 255.45 315.92 260.74 315.95 266.04C315.95 269.52 315.95 272.95 315.95 276.41C315.95 276.97 316.02 277.52 316.07 278.08C316.13 278.78 316.23 279.52 316.24 280.25C316.29 282.08 316.3 283.92 316.33 285.76C316.32 286.21 316.35 286.65 316.41 287.1C316.6 288.31 316.71 289.54 316.72 290.77C316.72 291.47 316.86 292.1 316.91 292.76C316.98 293.54 317.03 294.32 317.07 295.1C317.08 296.33 317.16 297.55 317.33 298.77C317.4 299.27 317.43 299.77 317.42 300.27C317.42 301.83 317.54 303.39 317.74 304.94C317.86 306.33 317.9 307.73 317.86 309.12C317.86 310.01 317.86 310.9 317.86 311.8C317.85 312.41 317.79 313.03 317.69 313.63C317.51 314.45 317.51 315.3 317.69 316.12C317.75 316.35 317.78 316.58 317.79 316.82C317.92 319.21 317.88 321.61 317.67 324.01C317.57 324.73 317.57 325.45 317.67 326.17C317.78 326.94 317.83 327.72 317.84 328.5C317.84 330.28 317.84 332.07 317.84 333.85C317.85 334.63 317.79 335.41 317.67 336.18C317.59 336.73 317.55 337.29 317.55 337.85C317.55 339.35 317.51 340.85 317.47 342.36C317.46 342.97 317.41 343.58 317.32 344.19C317.24 344.69 317.24 345.19 317.32 345.69C317.37 346.02 317.37 346.36 317.32 346.69C317.09 348.58 317 350.47 317.03 352.36C317.03 354.14 317.03 355.93 317.03 357.71C317.09 358.88 316.99 360.05 316.73 361.19C316.69 361.3 316.68 361.41 316.67 361.52C316.72 363.47 316.25 365.4 316.28 367.35C316.28 367.96 316.28 368.58 316.28 369.19C316.29 370.09 316.06 370.98 315.59 371.78C314.95 373 314.39 374.25 313.94 375.52C312.92 378.06 311.74 380.54 310.55 383.02C310.01 384.22 309.16 385.31 308.07 386.2C307.09 387.03 306.07 387.82 305 388.56C304.48 388.9 303.99 389.28 303.55 389.69C302.3 390.77 300.85 391.67 299.26 392.37C296.17 393.76 293.06 395.12 289.84 396.29C288.32 396.84 286.71 397.19 285.06 397.34C282.58 397.54 280.22 397.9 277.8 398.21C277.2 398.28 276.62 398.33 276.03 398.39C275.1 398.47 274.19 398.56 273.27 398.63C272.67 398.68 272.08 398.72 271.49 398.74C269.9 398.74 268.32 398.75 266.73 398.78C265.8 398.79 264.88 398.84 263.96 398.93C262.06 399.12 260.15 399.27 258.25 399.41C257.19 399.47 256.13 399.41 255.09 399.24C254.44 399.15 253.78 399.1 253.12 399.09C252.53 399.09 251.93 399.13 251.34 399.09C249.75 399.03 248.16 399.19 246.64 399.56C245.29 399.91 243.84 399.87 242.51 399.46C241.45 399.14 240.33 399 239.21 399.03C237.83 399.09 236.44 399.02 235.08 398.83C234.88 398.8 234.68 398.78 234.48 398.78C232 398.78 229.62 398.39 227.19 398.15C225.82 398.04 224.44 398 223.06 398.01C221.87 398.01 220.68 398.01 219.5 398.07C218.67 398.07 217.78 398.17 216.93 398.24C213.91 398.49 210.91 398.9 207.84 398.73C207.01 398.69 206.26 398.63 205.48 398.52C204.12 398.34 202.74 398.21 201.35 398.12C200.69 398.08 200.03 398.11 199.38 398.2C198.46 398.31 197.54 398.36 196.61 398.35C194.63 398.35 192.64 398.35 190.66 398.35C189.14 398.4 187.62 398.34 186.12 398.15C185.4 398.05 184.67 398.05 183.95 398.15C182.12 398.36 180.26 398.44 178.41 398.37C177.02 398.37 175.63 398.37 174.28 398.33C173.35 398.31 172.42 398.43 171.54 398.69C169.97 399.17 168.25 399.17 166.68 398.69C165.86 398.47 165 398.36 164.14 398.38C162.29 398.38 160.44 398.38 158.59 398.38C157.93 398.38 157.28 398.44 156.63 398.55C155.59 398.75 154.52 398.75 153.48 398.55C152.58 398.39 151.64 398.39 150.74 398.55C148.65 398.84 146.51 398.84 144.42 398.55C143.64 398.41 142.84 398.41 142.07 398.55C141.23 398.72 140.37 398.79 139.52 398.76C138.72 398.72 137.93 398.82 137.17 399.03C135.27 399.52 133.24 399.59 131.29 399.25C130.2 399.04 129.07 399.04 127.99 399.25C127.09 399.45 126.13 399.4 125.26 399.12C124.95 399.02 124.63 398.95 124.32 398.87C123.68 398.72 123.01 398.69 122.35 398.79C122.09 398.82 121.83 398.87 121.58 398.94C119.93 399.36 118.21 399.53 116.49 399.43C114.44 399.43 112.36 399.43 110.34 399.37C109.02 399.36 107.7 399.44 106.39 399.59C103.97 399.88 101.51 399.88 99.0901 399.59C96.4801 399.19 93.8001 399.27 91.2201 399.81C90.0801 400.11 88.8601 400.13 87.7101 399.87C86.9401 399.69 86.1501 399.63 85.3501 399.68C83.7701 399.78 82.1701 399.67 80.6301 399.34C80.2701 399.19 79.9401 399.17 79.4601 399.11Z" fill="white"/>
</g>
</g>
<defs>
<filter id="filter0_i_57_27" x="0.0144043" y="0.0422363" width="317.861" height="400.009" filterUnits="userSpaceOnUse" color-interpolation-filters="sRGB">
<feFlood flood-opacity="0" result="BackgroundImageFix"/>
<feBlend mode="normal" in="SourceGraphic" in2="BackgroundImageFix" result="shape"/>
<feColorMatrix in="SourceAlpha" type="matrix" values="0 0 0 0 0 0 0 0 0 0 0 0 0 0 0 0 0 0 127 0" result="hardAlpha"/>
<feOffset/>
<feGaussianBlur stdDeviation="4"/>
<feComposite in2="hardAlpha" operator="arithmetic" k2="-1" k3="1"/>
<feColorMatrix type="matrix" values="0 0 0 0 0 0 0 0 0 0 0 0 0 0 0 0 0 0 0.25 0"/>
<feBlend mode="normal" in2="shape" result="effect1_innerShadow_57_27"/>
</filter>
<clipPath id="clip0_57_27">
<rect width="317.87" height="399.98" fill="white"/>
</clipPath>
</defs>
</svg>
